<svg width="40" height="40" viewBox="0 0 40 40" fill="none" xmlns="http://www.w3.org/2000/svg">
<circle cx="20" cy="20" r="20" fill="#2C2C2C" fill-opacity="0.4"/>
<path d="M23.155 20.8891C23.8217 20.8891 24.4083 20.5247 24.7106 19.9736L27.8928 14.2047C28.2217 13.618 27.795 12.8891 27.1195 12.8891H13.9639L13.1283 11.1113H10.2217V12.8891H11.9995L15.1995 19.6358L13.9995 21.8047C13.3506 22.9958 14.2039 24.4447 15.555 24.4447H26.2217V22.6669H15.555L16.5328 20.8891H23.155ZM14.8083 14.6669H25.6083L23.155 19.1113H16.915L14.8083 14.6669ZM15.555 25.3336C14.5772 25.3336 13.7861 26.1336 13.7861 27.1113C13.7861 28.0891 14.5772 28.8891 15.555 28.8891C16.5328 28.8891 17.3328 28.0891 17.3328 27.1113C17.3328 26.1336 16.5328 25.3336 15.555 25.3336ZM24.4439 25.3336C23.4661 25.3336 22.675 26.1336 22.675 27.1113C22.675 28.0891 23.4661 28.8891 24.4439 28.8891C25.4217 28.8891 26.2217 28.0891 26.2217 27.1113C26.2217 26.1336 25.4217 25.3336 24.4439 25.3336Z" fill="white"/>
</svg>
