<svg width="38" height="38" viewBox="0 0 38 38" fill="none" xmlns="http://www.w3.org/2000/svg">
<path fill-rule="evenodd" clip-rule="evenodd" d="M19.5563 6.25649C19.9126 5.90029 20.3958 5.7002 20.8996 5.7002C21.4034 5.7002 21.8866 5.90029 22.2429 6.25649L33.6429 17.6565C33.9991 18.0128 34.1992 18.496 34.1992 18.9998C34.1992 19.5036 33.9991 19.9868 33.6429 20.3431L22.2429 31.7431C21.8846 32.0892 21.4046 32.2807 20.9065 32.2764C20.4083 32.272 19.9317 32.0722 19.5795 31.7199C19.2272 31.3677 19.0274 30.8911 19.023 30.393C19.0187 29.8948 19.2102 29.4148 19.5563 29.0565L27.713 20.8998H5.69963C5.19571 20.8998 4.71244 20.6996 4.35612 20.3433C3.9998 19.987 3.79963 19.5037 3.79963 18.9998C3.79963 18.4959 3.9998 18.0126 4.35612 17.6563C4.71244 17.3 5.19571 17.0998 5.69963 17.0998H27.713L19.5563 8.94309C19.2001 8.58679 19 8.1036 19 7.59979C19 7.09598 19.2001 6.61279 19.5563 6.25649Z" fill="#FF9900"/>
</svg>
